<mxfile host="app.diagrams.net" modified="2023-05-08T13:17:18.992Z" agent="Mozilla/5.0 (Windows NT 10.0; Win64; x64) AppleWebKit/537.36 (KHTML, like Gecko) Chrome/113.0.0.0 Safari/537.36" etag="KwDvbnIYs9KSpvSq53bG" version="21.2.9" type="device">
  <diagram name="Page-1" id="-RxSeFyKFKqmYjcRt6M_">
    <mxGraphModel dx="1581" dy="614" grid="1" gridSize="10" guides="1" tooltips="1" connect="1" arrows="1" fold="1" page="1" pageScale="1" pageWidth="850" pageHeight="1100" math="0" shadow="0">
      <root>
        <mxCell id="0" />
        <mxCell id="1" parent="0" />
        <mxCell id="iUNwxUECLNHlixEBXG21-73" value="1" style="rounded=0;whiteSpace=wrap;html=1;" parent="1" vertex="1">
          <mxGeometry x="80" y="900" width="60" height="50" as="geometry" />
        </mxCell>
        <mxCell id="ARyHhHrMXeGsc7QZUH2p-6" style="edgeStyle=orthogonalEdgeStyle;rounded=0;orthogonalLoop=1;jettySize=auto;html=1;exitX=1;exitY=0.5;exitDx=0;exitDy=0;entryX=0;entryY=0.5;entryDx=0;entryDy=0;fillColor=#e51400;strokeColor=#B20000;" edge="1" parent="1" source="iUNwxUECLNHlixEBXG21-74" target="iUNwxUECLNHlixEBXG21-78">
          <mxGeometry relative="1" as="geometry" />
        </mxCell>
        <mxCell id="iUNwxUECLNHlixEBXG21-74" value="" style="rounded=0;whiteSpace=wrap;html=1;" parent="1" vertex="1">
          <mxGeometry x="140" y="900" width="120" height="50" as="geometry" />
        </mxCell>
        <mxCell id="iUNwxUECLNHlixEBXG21-75" value="4" style="rounded=0;whiteSpace=wrap;html=1;" parent="1" vertex="1">
          <mxGeometry x="80" y="950" width="60" height="50" as="geometry" />
        </mxCell>
        <mxCell id="iUNwxUECLNHlixEBXG21-76" value="0" style="rounded=0;whiteSpace=wrap;html=1;" parent="1" vertex="1">
          <mxGeometry x="140" y="950" width="60" height="50" as="geometry" />
        </mxCell>
        <mxCell id="iUNwxUECLNHlixEBXG21-77" value="0" style="rounded=0;whiteSpace=wrap;html=1;" parent="1" vertex="1">
          <mxGeometry x="200" y="950" width="60" height="50" as="geometry" />
        </mxCell>
        <mxCell id="iUNwxUECLNHlixEBXG21-78" value="2" style="rounded=0;whiteSpace=wrap;html=1;" parent="1" vertex="1">
          <mxGeometry x="280" y="900" width="60" height="50" as="geometry" />
        </mxCell>
        <mxCell id="ARyHhHrMXeGsc7QZUH2p-7" style="edgeStyle=orthogonalEdgeStyle;rounded=0;orthogonalLoop=1;jettySize=auto;html=1;exitX=1;exitY=0.5;exitDx=0;exitDy=0;entryX=0;entryY=0.5;entryDx=0;entryDy=0;fillColor=#e51400;strokeColor=#B20000;" edge="1" parent="1" source="iUNwxUECLNHlixEBXG21-79" target="iUNwxUECLNHlixEBXG21-93">
          <mxGeometry relative="1" as="geometry" />
        </mxCell>
        <mxCell id="iUNwxUECLNHlixEBXG21-79" value="" style="rounded=0;whiteSpace=wrap;html=1;" parent="1" vertex="1">
          <mxGeometry x="340" y="900" width="120" height="50" as="geometry" />
        </mxCell>
        <mxCell id="iUNwxUECLNHlixEBXG21-80" value="4" style="rounded=0;whiteSpace=wrap;html=1;" parent="1" vertex="1">
          <mxGeometry x="280" y="950" width="60" height="50" as="geometry" />
        </mxCell>
        <mxCell id="iUNwxUECLNHlixEBXG21-81" value="0" style="rounded=0;whiteSpace=wrap;html=1;" parent="1" vertex="1">
          <mxGeometry x="340" y="950" width="60" height="50" as="geometry" />
        </mxCell>
        <mxCell id="iUNwxUECLNHlixEBXG21-82" value="0" style="rounded=0;whiteSpace=wrap;html=1;" parent="1" vertex="1">
          <mxGeometry x="400" y="950" width="60" height="50" as="geometry" />
        </mxCell>
        <mxCell id="iUNwxUECLNHlixEBXG21-83" value="6" style="rounded=0;whiteSpace=wrap;html=1;" parent="1" vertex="1">
          <mxGeometry x="1100" y="745" width="60" height="50" as="geometry" />
        </mxCell>
        <mxCell id="iUNwxUECLNHlixEBXG21-202" style="edgeStyle=orthogonalEdgeStyle;rounded=0;orthogonalLoop=1;jettySize=auto;html=1;exitX=1;exitY=0.5;exitDx=0;exitDy=0;" parent="1" source="iUNwxUECLNHlixEBXG21-84" target="iUNwxUECLNHlixEBXG21-88" edge="1">
          <mxGeometry relative="1" as="geometry" />
        </mxCell>
        <mxCell id="iUNwxUECLNHlixEBXG21-84" value="" style="rounded=0;whiteSpace=wrap;html=1;" parent="1" vertex="1">
          <mxGeometry x="1160" y="745" width="120" height="50" as="geometry" />
        </mxCell>
        <mxCell id="iUNwxUECLNHlixEBXG21-85" value="4" style="rounded=0;whiteSpace=wrap;html=1;" parent="1" vertex="1">
          <mxGeometry x="1100" y="795" width="60" height="50" as="geometry" />
        </mxCell>
        <mxCell id="iUNwxUECLNHlixEBXG21-86" value="18" style="rounded=0;whiteSpace=wrap;html=1;" parent="1" vertex="1">
          <mxGeometry x="1160" y="795" width="60" height="50" as="geometry" />
        </mxCell>
        <mxCell id="iUNwxUECLNHlixEBXG21-87" value="0" style="rounded=0;whiteSpace=wrap;html=1;" parent="1" vertex="1">
          <mxGeometry x="1220" y="795" width="60" height="50" as="geometry" />
        </mxCell>
        <mxCell id="iUNwxUECLNHlixEBXG21-88" value="7" style="rounded=0;whiteSpace=wrap;html=1;" parent="1" vertex="1">
          <mxGeometry x="1300" y="745" width="60" height="50" as="geometry" />
        </mxCell>
        <mxCell id="iUNwxUECLNHlixEBXG21-187" style="edgeStyle=orthogonalEdgeStyle;rounded=0;orthogonalLoop=1;jettySize=auto;html=1;exitX=1;exitY=0.5;exitDx=0;exitDy=0;entryX=0;entryY=0.5;entryDx=0;entryDy=0;" parent="1" source="iUNwxUECLNHlixEBXG21-89" target="iUNwxUECLNHlixEBXG21-113" edge="1">
          <mxGeometry relative="1" as="geometry">
            <mxPoint x="1650" y="870" as="targetPoint" />
          </mxGeometry>
        </mxCell>
        <mxCell id="ARyHhHrMXeGsc7QZUH2p-93" style="edgeStyle=orthogonalEdgeStyle;rounded=0;orthogonalLoop=1;jettySize=auto;html=1;exitX=1;exitY=0.5;exitDx=0;exitDy=0;" edge="1" parent="1" source="iUNwxUECLNHlixEBXG21-89" target="iUNwxUECLNHlixEBXG21-163">
          <mxGeometry relative="1" as="geometry" />
        </mxCell>
        <mxCell id="iUNwxUECLNHlixEBXG21-89" value="" style="rounded=0;whiteSpace=wrap;html=1;" parent="1" vertex="1">
          <mxGeometry x="1360" y="745" width="120" height="50" as="geometry" />
        </mxCell>
        <mxCell id="iUNwxUECLNHlixEBXG21-90" value="3" style="rounded=0;whiteSpace=wrap;html=1;" parent="1" vertex="1">
          <mxGeometry x="1300" y="795" width="60" height="50" as="geometry" />
        </mxCell>
        <mxCell id="iUNwxUECLNHlixEBXG21-91" value="18" style="rounded=0;whiteSpace=wrap;html=1;" parent="1" vertex="1">
          <mxGeometry x="1360" y="795" width="60" height="50" as="geometry" />
        </mxCell>
        <mxCell id="iUNwxUECLNHlixEBXG21-92" value="18" style="rounded=0;whiteSpace=wrap;html=1;" parent="1" vertex="1">
          <mxGeometry x="1420" y="795" width="60" height="50" as="geometry" />
        </mxCell>
        <mxCell id="iUNwxUECLNHlixEBXG21-93" value="3" style="rounded=0;whiteSpace=wrap;html=1;" parent="1" vertex="1">
          <mxGeometry x="480" y="900" width="60" height="50" as="geometry" />
        </mxCell>
        <mxCell id="ARyHhHrMXeGsc7QZUH2p-8" style="edgeStyle=orthogonalEdgeStyle;rounded=0;orthogonalLoop=1;jettySize=auto;html=1;exitX=1;exitY=0.5;exitDx=0;exitDy=0;entryX=0;entryY=0.5;entryDx=0;entryDy=0;fillColor=#e51400;strokeColor=#B20000;" edge="1" parent="1" source="iUNwxUECLNHlixEBXG21-94" target="iUNwxUECLNHlixEBXG21-118">
          <mxGeometry relative="1" as="geometry" />
        </mxCell>
        <mxCell id="iUNwxUECLNHlixEBXG21-94" value="" style="rounded=0;whiteSpace=wrap;html=1;" parent="1" vertex="1">
          <mxGeometry x="540" y="900" width="120" height="50" as="geometry" />
        </mxCell>
        <mxCell id="iUNwxUECLNHlixEBXG21-95" value="0" style="rounded=0;whiteSpace=wrap;html=1;" parent="1" vertex="1">
          <mxGeometry x="480" y="950" width="60" height="50" as="geometry" />
        </mxCell>
        <mxCell id="iUNwxUECLNHlixEBXG21-96" value="0" style="rounded=0;whiteSpace=wrap;html=1;" parent="1" vertex="1">
          <mxGeometry x="540" y="950" width="60" height="50" as="geometry" />
        </mxCell>
        <mxCell id="iUNwxUECLNHlixEBXG21-97" value="0" style="rounded=0;whiteSpace=wrap;html=1;" parent="1" vertex="1">
          <mxGeometry x="600" y="950" width="60" height="50" as="geometry" />
        </mxCell>
        <mxCell id="iUNwxUECLNHlixEBXG21-98" value="8" style="rounded=0;whiteSpace=wrap;html=1;" parent="1" vertex="1">
          <mxGeometry x="900" y="900" width="60" height="50" as="geometry" />
        </mxCell>
        <mxCell id="iUNwxUECLNHlixEBXG21-195" style="edgeStyle=orthogonalEdgeStyle;rounded=0;orthogonalLoop=1;jettySize=auto;html=1;exitX=1;exitY=0.5;exitDx=0;exitDy=0;fillColor=#e51400;strokeColor=#B20000;" parent="1" source="iUNwxUECLNHlixEBXG21-99" target="iUNwxUECLNHlixEBXG21-123" edge="1">
          <mxGeometry relative="1" as="geometry" />
        </mxCell>
        <mxCell id="iUNwxUECLNHlixEBXG21-99" value="" style="rounded=0;whiteSpace=wrap;html=1;" parent="1" vertex="1">
          <mxGeometry x="960" y="900" width="120" height="50" as="geometry" />
        </mxCell>
        <mxCell id="iUNwxUECLNHlixEBXG21-100" value="12" style="rounded=0;whiteSpace=wrap;html=1;" parent="1" vertex="1">
          <mxGeometry x="900" y="950" width="60" height="50" as="geometry" />
        </mxCell>
        <mxCell id="iUNwxUECLNHlixEBXG21-101" value="0" style="rounded=0;whiteSpace=wrap;html=1;" parent="1" vertex="1">
          <mxGeometry x="960" y="950" width="60" height="50" as="geometry" />
        </mxCell>
        <mxCell id="iUNwxUECLNHlixEBXG21-102" value="0" style="rounded=0;whiteSpace=wrap;html=1;" parent="1" vertex="1">
          <mxGeometry x="1020" y="950" width="60" height="50" as="geometry" />
        </mxCell>
        <mxCell id="iUNwxUECLNHlixEBXG21-103" value="11" style="rounded=0;whiteSpace=wrap;html=1;" parent="1" vertex="1">
          <mxGeometry x="1300" y="1050" width="60" height="50" as="geometry" />
        </mxCell>
        <mxCell id="iUNwxUECLNHlixEBXG21-190" style="edgeStyle=orthogonalEdgeStyle;rounded=0;orthogonalLoop=1;jettySize=auto;html=1;exitX=1;exitY=0.5;exitDx=0;exitDy=0;entryX=0;entryY=0.5;entryDx=0;entryDy=0;" parent="1" source="iUNwxUECLNHlixEBXG21-104" target="iUNwxUECLNHlixEBXG21-113" edge="1">
          <mxGeometry relative="1" as="geometry" />
        </mxCell>
        <mxCell id="ARyHhHrMXeGsc7QZUH2p-94" style="edgeStyle=orthogonalEdgeStyle;rounded=0;orthogonalLoop=1;jettySize=auto;html=1;exitX=1;exitY=0.75;exitDx=0;exitDy=0;entryX=0;entryY=0.5;entryDx=0;entryDy=0;" edge="1" parent="1" source="iUNwxUECLNHlixEBXG21-104" target="iUNwxUECLNHlixEBXG21-108">
          <mxGeometry relative="1" as="geometry" />
        </mxCell>
        <mxCell id="iUNwxUECLNHlixEBXG21-104" value="" style="rounded=0;whiteSpace=wrap;html=1;" parent="1" vertex="1">
          <mxGeometry x="1360" y="1050" width="120" height="50" as="geometry" />
        </mxCell>
        <mxCell id="iUNwxUECLNHlixEBXG21-105" value="2" style="rounded=0;whiteSpace=wrap;html=1;" parent="1" vertex="1">
          <mxGeometry x="1300" y="1100" width="60" height="50" as="geometry" />
        </mxCell>
        <mxCell id="iUNwxUECLNHlixEBXG21-106" value="27" style="rounded=0;whiteSpace=wrap;html=1;" parent="1" vertex="1">
          <mxGeometry x="1360" y="1100" width="60" height="50" as="geometry" />
        </mxCell>
        <mxCell id="iUNwxUECLNHlixEBXG21-107" value="27" style="rounded=0;whiteSpace=wrap;html=1;" parent="1" vertex="1">
          <mxGeometry x="1420" y="1100" width="60" height="50" as="geometry" />
        </mxCell>
        <mxCell id="iUNwxUECLNHlixEBXG21-108" value="12" style="rounded=0;whiteSpace=wrap;html=1;" parent="1" vertex="1">
          <mxGeometry x="1535" y="1180" width="60" height="50" as="geometry" />
        </mxCell>
        <mxCell id="iUNwxUECLNHlixEBXG21-207" style="edgeStyle=orthogonalEdgeStyle;rounded=0;orthogonalLoop=1;jettySize=auto;html=1;exitX=1;exitY=0.5;exitDx=0;exitDy=0;entryX=0;entryY=0.5;entryDx=0;entryDy=0;" parent="1" source="iUNwxUECLNHlixEBXG21-109" target="iUNwxUECLNHlixEBXG21-128" edge="1">
          <mxGeometry relative="1" as="geometry" />
        </mxCell>
        <mxCell id="iUNwxUECLNHlixEBXG21-109" value="" style="rounded=0;whiteSpace=wrap;html=1;" parent="1" vertex="1">
          <mxGeometry x="1595" y="1180" width="120" height="50" as="geometry" />
        </mxCell>
        <mxCell id="iUNwxUECLNHlixEBXG21-110" value="2" style="rounded=0;whiteSpace=wrap;html=1;" parent="1" vertex="1">
          <mxGeometry x="1535" y="1230" width="60" height="50" as="geometry" />
        </mxCell>
        <mxCell id="iUNwxUECLNHlixEBXG21-111" value="44" style="rounded=0;whiteSpace=wrap;html=1;" parent="1" vertex="1">
          <mxGeometry x="1595" y="1230" width="60" height="50" as="geometry" />
        </mxCell>
        <mxCell id="iUNwxUECLNHlixEBXG21-112" value="44" style="rounded=0;whiteSpace=wrap;html=1;" parent="1" vertex="1">
          <mxGeometry x="1655" y="1230" width="60" height="50" as="geometry" />
        </mxCell>
        <mxCell id="iUNwxUECLNHlixEBXG21-113" value="13" style="rounded=0;whiteSpace=wrap;html=1;" parent="1" vertex="1">
          <mxGeometry x="1535" y="900" width="60" height="50" as="geometry" />
        </mxCell>
        <mxCell id="iUNwxUECLNHlixEBXG21-208" style="edgeStyle=orthogonalEdgeStyle;rounded=0;orthogonalLoop=1;jettySize=auto;html=1;exitX=1;exitY=0.5;exitDx=0;exitDy=0;entryX=0;entryY=0.5;entryDx=0;entryDy=0;fillColor=#e51400;strokeColor=#B20000;" parent="1" source="iUNwxUECLNHlixEBXG21-114" target="iUNwxUECLNHlixEBXG21-128" edge="1">
          <mxGeometry relative="1" as="geometry" />
        </mxCell>
        <mxCell id="iUNwxUECLNHlixEBXG21-114" value="" style="rounded=0;whiteSpace=wrap;html=1;" parent="1" vertex="1">
          <mxGeometry x="1595" y="900" width="120" height="50" as="geometry" />
        </mxCell>
        <mxCell id="iUNwxUECLNHlixEBXG21-115" value="7" style="rounded=0;whiteSpace=wrap;html=1;" parent="1" vertex="1">
          <mxGeometry x="1535" y="950" width="60" height="50" as="geometry" />
        </mxCell>
        <mxCell id="iUNwxUECLNHlixEBXG21-116" value="0" style="rounded=0;whiteSpace=wrap;html=1;" parent="1" vertex="1">
          <mxGeometry x="1595" y="950" width="60" height="50" as="geometry" />
        </mxCell>
        <mxCell id="iUNwxUECLNHlixEBXG21-117" value="0" style="rounded=0;whiteSpace=wrap;html=1;" parent="1" vertex="1">
          <mxGeometry x="1655" y="950" width="60" height="50" as="geometry" />
        </mxCell>
        <mxCell id="iUNwxUECLNHlixEBXG21-118" value="4" style="rounded=0;whiteSpace=wrap;html=1;" parent="1" vertex="1">
          <mxGeometry x="680" y="900" width="60" height="50" as="geometry" />
        </mxCell>
        <mxCell id="ARyHhHrMXeGsc7QZUH2p-12" style="edgeStyle=orthogonalEdgeStyle;rounded=0;orthogonalLoop=1;jettySize=auto;html=1;exitX=1;exitY=0.5;exitDx=0;exitDy=0;entryX=0;entryY=0.5;entryDx=0;entryDy=0;" edge="1" parent="1" source="iUNwxUECLNHlixEBXG21-119" target="iUNwxUECLNHlixEBXG21-103">
          <mxGeometry relative="1" as="geometry">
            <mxPoint x="1210" y="1101.3333129882812" as="targetPoint" />
            <Array as="points">
              <mxPoint x="880" y="925" />
              <mxPoint x="880" y="1075" />
            </Array>
          </mxGeometry>
        </mxCell>
        <mxCell id="ARyHhHrMXeGsc7QZUH2p-14" style="edgeStyle=orthogonalEdgeStyle;rounded=0;orthogonalLoop=1;jettySize=auto;html=1;exitX=1;exitY=0.5;exitDx=0;exitDy=0;entryX=0;entryY=0.5;entryDx=0;entryDy=0;" edge="1" parent="1" source="iUNwxUECLNHlixEBXG21-119" target="iUNwxUECLNHlixEBXG21-153">
          <mxGeometry relative="1" as="geometry" />
        </mxCell>
        <mxCell id="ARyHhHrMXeGsc7QZUH2p-15" style="edgeStyle=orthogonalEdgeStyle;rounded=0;orthogonalLoop=1;jettySize=auto;html=1;exitX=1;exitY=0.5;exitDx=0;exitDy=0;entryX=0;entryY=0.5;entryDx=0;entryDy=0;" edge="1" parent="1" source="iUNwxUECLNHlixEBXG21-119" target="iUNwxUECLNHlixEBXG21-148">
          <mxGeometry relative="1" as="geometry">
            <mxPoint x="1500" y="680" as="targetPoint" />
            <Array as="points">
              <mxPoint x="880" y="925" />
              <mxPoint x="880" y="585" />
            </Array>
          </mxGeometry>
        </mxCell>
        <mxCell id="iUNwxUECLNHlixEBXG21-119" value="" style="rounded=0;whiteSpace=wrap;html=1;" parent="1" vertex="1">
          <mxGeometry x="740" y="900" width="120" height="50" as="geometry" />
        </mxCell>
        <mxCell id="iUNwxUECLNHlixEBXG21-120" value="3" style="rounded=0;whiteSpace=wrap;html=1;" parent="1" vertex="1">
          <mxGeometry x="680" y="950" width="60" height="50" as="geometry" />
        </mxCell>
        <mxCell id="iUNwxUECLNHlixEBXG21-121" value="0" style="rounded=0;whiteSpace=wrap;html=1;" parent="1" vertex="1">
          <mxGeometry x="740" y="950" width="60" height="50" as="geometry" />
        </mxCell>
        <mxCell id="iUNwxUECLNHlixEBXG21-122" value="0" style="rounded=0;whiteSpace=wrap;html=1;" parent="1" vertex="1">
          <mxGeometry x="800" y="950" width="60" height="50" as="geometry" />
        </mxCell>
        <mxCell id="iUNwxUECLNHlixEBXG21-123" value="9" style="rounded=0;whiteSpace=wrap;html=1;" parent="1" vertex="1">
          <mxGeometry x="1100" y="900" width="60" height="50" as="geometry" />
        </mxCell>
        <mxCell id="iUNwxUECLNHlixEBXG21-203" style="edgeStyle=orthogonalEdgeStyle;rounded=0;orthogonalLoop=1;jettySize=auto;html=1;exitX=1;exitY=0.5;exitDx=0;exitDy=0;fillColor=#e51400;strokeColor=#B20000;" parent="1" source="iUNwxUECLNHlixEBXG21-124" target="iUNwxUECLNHlixEBXG21-158" edge="1">
          <mxGeometry relative="1" as="geometry" />
        </mxCell>
        <mxCell id="iUNwxUECLNHlixEBXG21-124" value="" style="rounded=0;whiteSpace=wrap;html=1;" parent="1" vertex="1">
          <mxGeometry x="1160" y="900" width="120" height="50" as="geometry" />
        </mxCell>
        <mxCell id="iUNwxUECLNHlixEBXG21-125" value="14" style="rounded=0;whiteSpace=wrap;html=1;" parent="1" vertex="1">
          <mxGeometry x="1100" y="950" width="60" height="50" as="geometry" />
        </mxCell>
        <mxCell id="iUNwxUECLNHlixEBXG21-126" value="0" style="rounded=0;whiteSpace=wrap;html=1;" parent="1" vertex="1">
          <mxGeometry x="1160" y="950" width="60" height="50" as="geometry" />
        </mxCell>
        <mxCell id="iUNwxUECLNHlixEBXG21-127" value="0" style="rounded=0;whiteSpace=wrap;html=1;" parent="1" vertex="1">
          <mxGeometry x="1220" y="950" width="60" height="50" as="geometry" />
        </mxCell>
        <mxCell id="iUNwxUECLNHlixEBXG21-128" value="14" style="rounded=0;whiteSpace=wrap;html=1;" parent="1" vertex="1">
          <mxGeometry x="1780" y="1050" width="60" height="50" as="geometry" />
        </mxCell>
        <mxCell id="iUNwxUECLNHlixEBXG21-184" style="edgeStyle=orthogonalEdgeStyle;rounded=0;orthogonalLoop=1;jettySize=auto;html=1;entryX=0;entryY=0.5;entryDx=0;entryDy=0;fillColor=#e51400;strokeColor=#B20000;" parent="1" source="iUNwxUECLNHlixEBXG21-129" target="iUNwxUECLNHlixEBXG21-133" edge="1">
          <mxGeometry relative="1" as="geometry" />
        </mxCell>
        <mxCell id="iUNwxUECLNHlixEBXG21-129" value="" style="rounded=0;whiteSpace=wrap;html=1;" parent="1" vertex="1">
          <mxGeometry x="1840" y="1050" width="120" height="50" as="geometry" />
        </mxCell>
        <mxCell id="iUNwxUECLNHlixEBXG21-130" value="10" style="rounded=0;whiteSpace=wrap;html=1;" parent="1" vertex="1">
          <mxGeometry x="1780" y="1100" width="60" height="50" as="geometry" />
        </mxCell>
        <mxCell id="iUNwxUECLNHlixEBXG21-131" value="0" style="rounded=0;whiteSpace=wrap;html=1;" parent="1" vertex="1">
          <mxGeometry x="1840" y="1100" width="60" height="50" as="geometry" />
        </mxCell>
        <mxCell id="iUNwxUECLNHlixEBXG21-132" value="0" style="rounded=0;whiteSpace=wrap;html=1;" parent="1" vertex="1">
          <mxGeometry x="1900" y="1100" width="60" height="50" as="geometry" />
        </mxCell>
        <mxCell id="iUNwxUECLNHlixEBXG21-133" value="16" style="rounded=0;whiteSpace=wrap;html=1;" parent="1" vertex="1">
          <mxGeometry x="2030" y="730" width="60" height="50" as="geometry" />
        </mxCell>
        <mxCell id="ARyHhHrMXeGsc7QZUH2p-4" style="edgeStyle=orthogonalEdgeStyle;rounded=0;orthogonalLoop=1;jettySize=auto;html=1;exitX=1;exitY=0.5;exitDx=0;exitDy=0;entryX=0;entryY=0.5;entryDx=0;entryDy=0;" edge="1" parent="1" source="iUNwxUECLNHlixEBXG21-134" target="iUNwxUECLNHlixEBXG21-138">
          <mxGeometry relative="1" as="geometry" />
        </mxCell>
        <mxCell id="ARyHhHrMXeGsc7QZUH2p-56" style="edgeStyle=orthogonalEdgeStyle;rounded=0;orthogonalLoop=1;jettySize=auto;html=1;exitX=1;exitY=0.25;exitDx=0;exitDy=0;entryX=0;entryY=0.5;entryDx=0;entryDy=0;fillColor=#e51400;strokeColor=#B20000;" edge="1" parent="1" source="iUNwxUECLNHlixEBXG21-134" target="iUNwxUECLNHlixEBXG21-168">
          <mxGeometry relative="1" as="geometry" />
        </mxCell>
        <mxCell id="iUNwxUECLNHlixEBXG21-134" value="" style="rounded=0;whiteSpace=wrap;html=1;" parent="1" vertex="1">
          <mxGeometry x="2090" y="730" width="120" height="50" as="geometry" />
        </mxCell>
        <mxCell id="iUNwxUECLNHlixEBXG21-135" value="2" style="rounded=0;whiteSpace=wrap;html=1;" parent="1" vertex="1">
          <mxGeometry x="2030" y="780" width="60" height="50" as="geometry" />
        </mxCell>
        <mxCell id="iUNwxUECLNHlixEBXG21-136" value="0" style="rounded=0;whiteSpace=wrap;html=1;" parent="1" vertex="1">
          <mxGeometry x="2090" y="780" width="60" height="50" as="geometry" />
        </mxCell>
        <mxCell id="iUNwxUECLNHlixEBXG21-137" value="0" style="rounded=0;whiteSpace=wrap;html=1;" parent="1" vertex="1">
          <mxGeometry x="2150" y="780" width="60" height="50" as="geometry" />
        </mxCell>
        <mxCell id="iUNwxUECLNHlixEBXG21-138" value="17" style="rounded=0;whiteSpace=wrap;html=1;" parent="1" vertex="1">
          <mxGeometry x="2280" y="730" width="60" height="50" as="geometry" />
        </mxCell>
        <mxCell id="ARyHhHrMXeGsc7QZUH2p-5" style="edgeStyle=orthogonalEdgeStyle;rounded=0;orthogonalLoop=1;jettySize=auto;html=1;exitX=1;exitY=0.5;exitDx=0;exitDy=0;entryX=0;entryY=0.5;entryDx=0;entryDy=0;" edge="1" parent="1" source="iUNwxUECLNHlixEBXG21-139" target="iUNwxUECLNHlixEBXG21-143">
          <mxGeometry relative="1" as="geometry" />
        </mxCell>
        <mxCell id="iUNwxUECLNHlixEBXG21-139" value="" style="rounded=0;whiteSpace=wrap;html=1;" parent="1" vertex="1">
          <mxGeometry x="2340" y="730" width="120" height="50" as="geometry" />
        </mxCell>
        <mxCell id="iUNwxUECLNHlixEBXG21-140" value="0" style="rounded=0;whiteSpace=wrap;html=1;" parent="1" vertex="1">
          <mxGeometry x="2280" y="780" width="60" height="50" as="geometry" />
        </mxCell>
        <mxCell id="iUNwxUECLNHlixEBXG21-141" value="2" style="rounded=0;whiteSpace=wrap;html=1;" parent="1" vertex="1">
          <mxGeometry x="2340" y="780" width="60" height="50" as="geometry" />
        </mxCell>
        <mxCell id="iUNwxUECLNHlixEBXG21-142" value="0" style="rounded=0;whiteSpace=wrap;html=1;" parent="1" vertex="1">
          <mxGeometry x="2400" y="780" width="60" height="50" as="geometry" />
        </mxCell>
        <mxCell id="iUNwxUECLNHlixEBXG21-143" value="18" style="rounded=0;whiteSpace=wrap;html=1;" parent="1" vertex="1">
          <mxGeometry x="2480" y="730" width="60" height="50" as="geometry" />
        </mxCell>
        <mxCell id="ARyHhHrMXeGsc7QZUH2p-11" style="edgeStyle=orthogonalEdgeStyle;rounded=0;orthogonalLoop=1;jettySize=auto;html=1;exitX=1;exitY=0.5;exitDx=0;exitDy=0;entryX=0;entryY=0.5;entryDx=0;entryDy=0;" edge="1" parent="1" source="iUNwxUECLNHlixEBXG21-144" target="iUNwxUECLNHlixEBXG21-178">
          <mxGeometry relative="1" as="geometry" />
        </mxCell>
        <mxCell id="iUNwxUECLNHlixEBXG21-144" value="" style="rounded=0;whiteSpace=wrap;html=1;" parent="1" vertex="1">
          <mxGeometry x="2540" y="730" width="120" height="50" as="geometry" />
        </mxCell>
        <mxCell id="iUNwxUECLNHlixEBXG21-145" value="1" style="rounded=0;whiteSpace=wrap;html=1;" parent="1" vertex="1">
          <mxGeometry x="2480" y="780" width="60" height="50" as="geometry" />
        </mxCell>
        <mxCell id="iUNwxUECLNHlixEBXG21-146" value="2" style="rounded=0;whiteSpace=wrap;html=1;" parent="1" vertex="1">
          <mxGeometry x="2540" y="780" width="60" height="50" as="geometry" />
        </mxCell>
        <mxCell id="iUNwxUECLNHlixEBXG21-147" value="2" style="rounded=0;whiteSpace=wrap;html=1;" parent="1" vertex="1">
          <mxGeometry x="2600" y="780" width="60" height="50" as="geometry" />
        </mxCell>
        <mxCell id="iUNwxUECLNHlixEBXG21-148" value="19" style="rounded=0;whiteSpace=wrap;html=1;" parent="1" vertex="1">
          <mxGeometry x="2030" y="560" width="60" height="50" as="geometry" />
        </mxCell>
        <mxCell id="ARyHhHrMXeGsc7QZUH2p-2" style="edgeStyle=orthogonalEdgeStyle;rounded=0;orthogonalLoop=1;jettySize=auto;html=1;exitX=1;exitY=0.25;exitDx=0;exitDy=0;entryX=0;entryY=0.25;entryDx=0;entryDy=0;" edge="1" parent="1" source="iUNwxUECLNHlixEBXG21-149" target="iUNwxUECLNHlixEBXG21-168">
          <mxGeometry relative="1" as="geometry" />
        </mxCell>
        <mxCell id="iUNwxUECLNHlixEBXG21-149" value="" style="rounded=0;whiteSpace=wrap;html=1;" parent="1" vertex="1">
          <mxGeometry x="2090" y="560" width="120" height="50" as="geometry" />
        </mxCell>
        <mxCell id="iUNwxUECLNHlixEBXG21-150" value="5" style="rounded=0;whiteSpace=wrap;html=1;" parent="1" vertex="1">
          <mxGeometry x="2030" y="610" width="60" height="50" as="geometry" />
        </mxCell>
        <mxCell id="iUNwxUECLNHlixEBXG21-151" value="43" style="rounded=0;whiteSpace=wrap;html=1;" parent="1" vertex="1">
          <mxGeometry x="2090" y="610" width="60" height="50" as="geometry" />
        </mxCell>
        <mxCell id="iUNwxUECLNHlixEBXG21-152" value="43" style="rounded=0;whiteSpace=wrap;html=1;" parent="1" vertex="1">
          <mxGeometry x="2150" y="610" width="60" height="50" as="geometry" />
        </mxCell>
        <mxCell id="iUNwxUECLNHlixEBXG21-153" value="5" style="rounded=0;whiteSpace=wrap;html=1;" parent="1" vertex="1">
          <mxGeometry x="900" y="745" width="60" height="50" as="geometry" />
        </mxCell>
        <mxCell id="iUNwxUECLNHlixEBXG21-194" style="edgeStyle=orthogonalEdgeStyle;rounded=0;orthogonalLoop=1;jettySize=auto;html=1;exitX=1;exitY=0.5;exitDx=0;exitDy=0;" parent="1" source="iUNwxUECLNHlixEBXG21-154" target="iUNwxUECLNHlixEBXG21-83" edge="1">
          <mxGeometry relative="1" as="geometry" />
        </mxCell>
        <mxCell id="iUNwxUECLNHlixEBXG21-154" value="" style="rounded=0;whiteSpace=wrap;html=1;" parent="1" vertex="1">
          <mxGeometry x="960" y="745" width="120" height="50" as="geometry" />
        </mxCell>
        <mxCell id="iUNwxUECLNHlixEBXG21-155" value="6" style="rounded=0;whiteSpace=wrap;html=1;" parent="1" vertex="1">
          <mxGeometry x="900" y="795" width="60" height="50" as="geometry" />
        </mxCell>
        <mxCell id="iUNwxUECLNHlixEBXG21-156" value="18" style="rounded=0;whiteSpace=wrap;html=1;" parent="1" vertex="1">
          <mxGeometry x="960" y="795" width="60" height="50" as="geometry" />
        </mxCell>
        <mxCell id="iUNwxUECLNHlixEBXG21-157" value="0" style="rounded=0;whiteSpace=wrap;html=1;" parent="1" vertex="1">
          <mxGeometry x="1020" y="795" width="60" height="50" as="geometry" />
        </mxCell>
        <mxCell id="iUNwxUECLNHlixEBXG21-158" value="10" style="rounded=0;whiteSpace=wrap;html=1;" parent="1" vertex="1">
          <mxGeometry x="1300" y="900" width="60" height="50" as="geometry" />
        </mxCell>
        <mxCell id="iUNwxUECLNHlixEBXG21-188" style="edgeStyle=orthogonalEdgeStyle;rounded=0;orthogonalLoop=1;jettySize=auto;html=1;exitX=1;exitY=0.5;exitDx=0;exitDy=0;fillColor=#e51400;strokeColor=#B20000;" parent="1" source="iUNwxUECLNHlixEBXG21-159" target="iUNwxUECLNHlixEBXG21-113" edge="1">
          <mxGeometry relative="1" as="geometry">
            <mxPoint x="1650" y="915" as="targetPoint" />
          </mxGeometry>
        </mxCell>
        <mxCell id="iUNwxUECLNHlixEBXG21-159" value="" style="rounded=0;whiteSpace=wrap;html=1;" parent="1" vertex="1">
          <mxGeometry x="1360" y="900" width="120" height="50" as="geometry" />
        </mxCell>
        <mxCell id="iUNwxUECLNHlixEBXG21-160" value="3" style="rounded=0;whiteSpace=wrap;html=1;" parent="1" vertex="1">
          <mxGeometry x="1300" y="950" width="60" height="50" as="geometry" />
        </mxCell>
        <mxCell id="iUNwxUECLNHlixEBXG21-161" value="0" style="rounded=0;whiteSpace=wrap;html=1;" parent="1" vertex="1">
          <mxGeometry x="1360" y="950" width="60" height="50" as="geometry" />
        </mxCell>
        <mxCell id="iUNwxUECLNHlixEBXG21-162" value="0" style="rounded=0;whiteSpace=wrap;html=1;" parent="1" vertex="1">
          <mxGeometry x="1420" y="950" width="60" height="50" as="geometry" />
        </mxCell>
        <mxCell id="iUNwxUECLNHlixEBXG21-163" value="15" style="rounded=0;whiteSpace=wrap;html=1;" parent="1" vertex="1">
          <mxGeometry x="1780" y="730" width="60" height="50" as="geometry" />
        </mxCell>
        <mxCell id="iUNwxUECLNHlixEBXG21-185" style="edgeStyle=orthogonalEdgeStyle;rounded=0;orthogonalLoop=1;jettySize=auto;html=1;exitX=1;exitY=0.25;exitDx=0;exitDy=0;entryX=0;entryY=0.25;entryDx=0;entryDy=0;" parent="1" source="iUNwxUECLNHlixEBXG21-164" target="iUNwxUECLNHlixEBXG21-133" edge="1">
          <mxGeometry relative="1" as="geometry" />
        </mxCell>
        <mxCell id="iUNwxUECLNHlixEBXG21-164" value="" style="rounded=0;whiteSpace=wrap;html=1;" parent="1" vertex="1">
          <mxGeometry x="1840" y="730" width="120" height="50" as="geometry" />
        </mxCell>
        <mxCell id="iUNwxUECLNHlixEBXG21-165" value="10" style="rounded=0;whiteSpace=wrap;html=1;" parent="1" vertex="1">
          <mxGeometry x="1780" y="780" width="60" height="50" as="geometry" />
        </mxCell>
        <mxCell id="iUNwxUECLNHlixEBXG21-166" value="7" style="rounded=0;whiteSpace=wrap;html=1;" parent="1" vertex="1">
          <mxGeometry x="1840" y="780" width="60" height="50" as="geometry" />
        </mxCell>
        <mxCell id="iUNwxUECLNHlixEBXG21-167" value="7" style="rounded=0;whiteSpace=wrap;html=1;" parent="1" vertex="1">
          <mxGeometry x="1900" y="780" width="60" height="50" as="geometry" />
        </mxCell>
        <mxCell id="iUNwxUECLNHlixEBXG21-168" value="20" style="rounded=0;whiteSpace=wrap;html=1;" parent="1" vertex="1">
          <mxGeometry x="2280" y="560" width="60" height="50" as="geometry" />
        </mxCell>
        <mxCell id="ARyHhHrMXeGsc7QZUH2p-3" style="edgeStyle=orthogonalEdgeStyle;rounded=0;orthogonalLoop=1;jettySize=auto;html=1;exitX=1;exitY=0.5;exitDx=0;exitDy=0;entryX=0;entryY=0.5;entryDx=0;entryDy=0;fillColor=#e51400;strokeColor=#B20000;" edge="1" parent="1" source="iUNwxUECLNHlixEBXG21-169" target="iUNwxUECLNHlixEBXG21-173">
          <mxGeometry relative="1" as="geometry" />
        </mxCell>
        <mxCell id="iUNwxUECLNHlixEBXG21-169" value="" style="rounded=0;whiteSpace=wrap;html=1;" parent="1" vertex="1">
          <mxGeometry x="2340" y="560" width="120" height="50" as="geometry" />
        </mxCell>
        <mxCell id="iUNwxUECLNHlixEBXG21-170" value="1" style="rounded=0;whiteSpace=wrap;html=1;" parent="1" vertex="1">
          <mxGeometry x="2280" y="610" width="60" height="50" as="geometry" />
        </mxCell>
        <mxCell id="iUNwxUECLNHlixEBXG21-171" value="0" style="rounded=0;whiteSpace=wrap;html=1;" parent="1" vertex="1">
          <mxGeometry x="2340" y="610" width="60" height="50" as="geometry" />
        </mxCell>
        <mxCell id="iUNwxUECLNHlixEBXG21-172" value="0" style="rounded=0;whiteSpace=wrap;html=1;" parent="1" vertex="1">
          <mxGeometry x="2400" y="610" width="60" height="50" as="geometry" />
        </mxCell>
        <mxCell id="iUNwxUECLNHlixEBXG21-173" value="21" style="rounded=0;whiteSpace=wrap;html=1;" parent="1" vertex="1">
          <mxGeometry x="2480" y="560" width="60" height="50" as="geometry" />
        </mxCell>
        <mxCell id="ARyHhHrMXeGsc7QZUH2p-10" style="edgeStyle=orthogonalEdgeStyle;rounded=0;orthogonalLoop=1;jettySize=auto;html=1;exitX=1;exitY=0.5;exitDx=0;exitDy=0;entryX=0;entryY=0.25;entryDx=0;entryDy=0;fillColor=#e51400;strokeColor=#B20000;" edge="1" parent="1" source="iUNwxUECLNHlixEBXG21-174" target="iUNwxUECLNHlixEBXG21-178">
          <mxGeometry relative="1" as="geometry" />
        </mxCell>
        <mxCell id="iUNwxUECLNHlixEBXG21-174" value="" style="rounded=0;whiteSpace=wrap;html=1;" parent="1" vertex="1">
          <mxGeometry x="2540" y="560" width="120" height="50" as="geometry" />
        </mxCell>
        <mxCell id="iUNwxUECLNHlixEBXG21-175" value="2" style="rounded=0;whiteSpace=wrap;html=1;" parent="1" vertex="1">
          <mxGeometry x="2480" y="610" width="60" height="50" as="geometry" />
        </mxCell>
        <mxCell id="iUNwxUECLNHlixEBXG21-176" value="0" style="rounded=0;whiteSpace=wrap;html=1;" parent="1" vertex="1">
          <mxGeometry x="2540" y="610" width="60" height="50" as="geometry" />
        </mxCell>
        <mxCell id="iUNwxUECLNHlixEBXG21-177" value="0" style="rounded=0;whiteSpace=wrap;html=1;" parent="1" vertex="1">
          <mxGeometry x="2600" y="610" width="60" height="50" as="geometry" />
        </mxCell>
        <mxCell id="iUNwxUECLNHlixEBXG21-178" value="22" style="rounded=0;whiteSpace=wrap;html=1;" parent="1" vertex="1">
          <mxGeometry x="2750" y="660" width="60" height="50" as="geometry" />
        </mxCell>
        <mxCell id="iUNwxUECLNHlixEBXG21-179" value="" style="rounded=0;whiteSpace=wrap;html=1;" parent="1" vertex="1">
          <mxGeometry x="2810" y="660" width="120" height="50" as="geometry" />
        </mxCell>
        <mxCell id="iUNwxUECLNHlixEBXG21-180" value="5" style="rounded=0;whiteSpace=wrap;html=1;" parent="1" vertex="1">
          <mxGeometry x="2750" y="710" width="60" height="50" as="geometry" />
        </mxCell>
        <mxCell id="iUNwxUECLNHlixEBXG21-181" value="0" style="rounded=0;whiteSpace=wrap;html=1;" parent="1" vertex="1">
          <mxGeometry x="2810" y="710" width="60" height="50" as="geometry" />
        </mxCell>
        <mxCell id="iUNwxUECLNHlixEBXG21-182" value="0" style="rounded=0;whiteSpace=wrap;html=1;" parent="1" vertex="1">
          <mxGeometry x="2870" y="710" width="60" height="50" as="geometry" />
        </mxCell>
        <mxCell id="iUNwxUECLNHlixEBXG21-197" value="" style="endArrow=classic;html=1;rounded=0;fillColor=#e51400;strokeColor=#B20000;" parent="1" target="iUNwxUECLNHlixEBXG21-98" edge="1">
          <mxGeometry width="50" height="50" relative="1" as="geometry">
            <mxPoint x="880" y="925" as="sourcePoint" />
            <mxPoint x="1300" y="980" as="targetPoint" />
          </mxGeometry>
        </mxCell>
        <mxCell id="iUNwxUECLNHlixEBXG21-200" value="" style="endArrow=none;html=1;rounded=0;" parent="1" edge="1">
          <mxGeometry width="50" height="50" relative="1" as="geometry">
            <mxPoint x="880" y="930" as="sourcePoint" />
            <mxPoint x="880" y="800" as="targetPoint" />
          </mxGeometry>
        </mxCell>
        <mxCell id="ARyHhHrMXeGsc7QZUH2p-16" value="4&amp;nbsp; &amp;nbsp; &amp;nbsp;4" style="text;html=1;align=center;verticalAlign=middle;resizable=0;points=[];autosize=1;strokeColor=none;fillColor=none;" vertex="1" parent="1">
          <mxGeometry x="240" y="870" width="50" height="30" as="geometry" />
        </mxCell>
        <mxCell id="ARyHhHrMXeGsc7QZUH2p-17" value="0" style="text;html=1;align=center;verticalAlign=middle;resizable=0;points=[];autosize=1;strokeColor=none;fillColor=none;" vertex="1" parent="1">
          <mxGeometry x="50" y="870" width="30" height="30" as="geometry" />
        </mxCell>
        <mxCell id="ARyHhHrMXeGsc7QZUH2p-18" value="0" style="text;html=1;align=center;verticalAlign=middle;resizable=0;points=[];autosize=1;strokeColor=none;fillColor=none;" vertex="1" parent="1">
          <mxGeometry x="50" y="1000" width="30" height="30" as="geometry" />
        </mxCell>
        <mxCell id="ARyHhHrMXeGsc7QZUH2p-19" value="4&amp;nbsp; &amp;nbsp; &amp;nbsp;4" style="text;html=1;align=center;verticalAlign=middle;resizable=0;points=[];autosize=1;strokeColor=none;fillColor=none;" vertex="1" parent="1">
          <mxGeometry x="240" y="998" width="50" height="30" as="geometry" />
        </mxCell>
        <mxCell id="ARyHhHrMXeGsc7QZUH2p-20" value="8&amp;nbsp; &amp;nbsp; &amp;nbsp;8" style="text;html=1;align=center;verticalAlign=middle;resizable=0;points=[];autosize=1;strokeColor=none;fillColor=none;" vertex="1" parent="1">
          <mxGeometry x="440" y="870" width="50" height="30" as="geometry" />
        </mxCell>
        <mxCell id="ARyHhHrMXeGsc7QZUH2p-21" value="8&amp;nbsp; &amp;nbsp; &amp;nbsp;8" style="text;html=1;align=center;verticalAlign=middle;resizable=0;points=[];autosize=1;strokeColor=none;fillColor=none;" vertex="1" parent="1">
          <mxGeometry x="440" y="1000" width="50" height="30" as="geometry" />
        </mxCell>
        <mxCell id="ARyHhHrMXeGsc7QZUH2p-22" value="8&amp;nbsp; &amp;nbsp; &amp;nbsp;8" style="text;html=1;align=center;verticalAlign=middle;resizable=0;points=[];autosize=1;strokeColor=none;fillColor=none;" vertex="1" parent="1">
          <mxGeometry x="640" y="870" width="50" height="30" as="geometry" />
        </mxCell>
        <mxCell id="ARyHhHrMXeGsc7QZUH2p-23" value="8&amp;nbsp; &amp;nbsp; &amp;nbsp;8" style="text;html=1;align=center;verticalAlign=middle;resizable=0;points=[];autosize=1;strokeColor=none;fillColor=none;" vertex="1" parent="1">
          <mxGeometry x="640" y="1000" width="50" height="30" as="geometry" />
        </mxCell>
        <mxCell id="ARyHhHrMXeGsc7QZUH2p-24" value="11" style="text;html=1;align=center;verticalAlign=middle;resizable=0;points=[];autosize=1;strokeColor=none;fillColor=none;" vertex="1" parent="1">
          <mxGeometry x="830" y="868" width="40" height="30" as="geometry" />
        </mxCell>
        <mxCell id="ARyHhHrMXeGsc7QZUH2p-25" value="11" style="text;html=1;align=center;verticalAlign=middle;resizable=0;points=[];autosize=1;strokeColor=none;fillColor=none;" vertex="1" parent="1">
          <mxGeometry x="830" y="1005" width="40" height="30" as="geometry" />
        </mxCell>
        <mxCell id="ARyHhHrMXeGsc7QZUH2p-26" value="11" style="text;html=1;align=center;verticalAlign=middle;resizable=0;points=[];autosize=1;strokeColor=none;fillColor=none;" vertex="1" parent="1">
          <mxGeometry x="880" y="715" width="40" height="30" as="geometry" />
        </mxCell>
        <mxCell id="ARyHhHrMXeGsc7QZUH2p-27" value="11" style="text;html=1;align=center;verticalAlign=middle;resizable=0;points=[];autosize=1;strokeColor=none;fillColor=none;" vertex="1" parent="1">
          <mxGeometry x="880" y="870" width="40" height="30" as="geometry" />
        </mxCell>
        <mxCell id="ARyHhHrMXeGsc7QZUH2p-28" value="11" style="text;html=1;align=center;verticalAlign=middle;resizable=0;points=[];autosize=1;strokeColor=none;fillColor=none;" vertex="1" parent="1">
          <mxGeometry x="1270" y="1020" width="40" height="30" as="geometry" />
        </mxCell>
        <mxCell id="ARyHhHrMXeGsc7QZUH2p-29" value="11" style="text;html=1;align=center;verticalAlign=middle;resizable=0;points=[];autosize=1;strokeColor=none;fillColor=none;" vertex="1" parent="1">
          <mxGeometry x="2010" y="530" width="40" height="30" as="geometry" />
        </mxCell>
        <mxCell id="ARyHhHrMXeGsc7QZUH2p-31" value="13" style="text;html=1;align=center;verticalAlign=middle;resizable=0;points=[];autosize=1;strokeColor=none;fillColor=none;" vertex="1" parent="1">
          <mxGeometry x="1510" y="1150" width="40" height="30" as="geometry" />
        </mxCell>
        <mxCell id="ARyHhHrMXeGsc7QZUH2p-32" value="23&amp;nbsp; &amp;nbsp; &amp;nbsp;23" style="text;html=1;align=center;verticalAlign=middle;resizable=0;points=[];autosize=1;strokeColor=none;fillColor=none;" vertex="1" parent="1">
          <mxGeometry x="1060" y="870" width="70" height="30" as="geometry" />
        </mxCell>
        <mxCell id="ARyHhHrMXeGsc7QZUH2p-33" value="17&amp;nbsp; &amp;nbsp; &amp;nbsp;17" style="text;html=1;align=center;verticalAlign=middle;resizable=0;points=[];autosize=1;strokeColor=none;fillColor=none;" vertex="1" parent="1">
          <mxGeometry x="1060" y="717" width="70" height="30" as="geometry" />
        </mxCell>
        <mxCell id="ARyHhHrMXeGsc7QZUH2p-34" value="37&amp;nbsp; &amp;nbsp; &amp;nbsp;37" style="text;html=1;align=center;verticalAlign=middle;resizable=0;points=[];autosize=1;strokeColor=none;fillColor=none;" vertex="1" parent="1">
          <mxGeometry x="1255" y="870" width="70" height="30" as="geometry" />
        </mxCell>
        <mxCell id="ARyHhHrMXeGsc7QZUH2p-35" value="21&amp;nbsp; &amp;nbsp; &amp;nbsp;21" style="text;html=1;align=center;verticalAlign=middle;resizable=0;points=[];autosize=1;strokeColor=none;fillColor=none;" vertex="1" parent="1">
          <mxGeometry x="1255" y="715" width="70" height="30" as="geometry" />
        </mxCell>
        <mxCell id="ARyHhHrMXeGsc7QZUH2p-36" value="24" style="text;html=1;align=center;verticalAlign=middle;resizable=0;points=[];autosize=1;strokeColor=none;fillColor=none;" vertex="1" parent="1">
          <mxGeometry x="1460" y="718" width="40" height="30" as="geometry" />
        </mxCell>
        <mxCell id="ARyHhHrMXeGsc7QZUH2p-37" value="40" style="text;html=1;align=center;verticalAlign=middle;resizable=0;points=[];autosize=1;strokeColor=none;fillColor=none;" vertex="1" parent="1">
          <mxGeometry x="1460" y="870" width="40" height="30" as="geometry" />
        </mxCell>
        <mxCell id="ARyHhHrMXeGsc7QZUH2p-38" value="13" style="text;html=1;align=center;verticalAlign=middle;resizable=0;points=[];autosize=1;strokeColor=none;fillColor=none;" vertex="1" parent="1">
          <mxGeometry x="1460" y="1020" width="40" height="30" as="geometry" />
        </mxCell>
        <mxCell id="ARyHhHrMXeGsc7QZUH2p-39" value="16" style="text;html=1;align=center;verticalAlign=middle;resizable=0;points=[];autosize=1;strokeColor=none;fillColor=none;" vertex="1" parent="1">
          <mxGeometry x="2190" y="528" width="40" height="30" as="geometry" />
        </mxCell>
        <mxCell id="ARyHhHrMXeGsc7QZUH2p-40" value="60&amp;nbsp; &amp;nbsp; &amp;nbsp;60" style="text;html=1;align=center;verticalAlign=middle;resizable=0;points=[];autosize=1;strokeColor=none;fillColor=none;" vertex="1" parent="1">
          <mxGeometry x="2430" y="530" width="70" height="30" as="geometry" />
        </mxCell>
        <mxCell id="ARyHhHrMXeGsc7QZUH2p-41" value="62" style="text;html=1;align=center;verticalAlign=middle;resizable=0;points=[];autosize=1;strokeColor=none;fillColor=none;" vertex="1" parent="1">
          <mxGeometry x="2640" y="528" width="40" height="30" as="geometry" />
        </mxCell>
        <mxCell id="ARyHhHrMXeGsc7QZUH2p-42" value="40" style="text;html=1;align=center;verticalAlign=middle;resizable=0;points=[];autosize=1;strokeColor=none;fillColor=none;" vertex="1" parent="1">
          <mxGeometry x="1510" y="870" width="40" height="30" as="geometry" />
        </mxCell>
        <mxCell id="ARyHhHrMXeGsc7QZUH2p-43" value="47" style="text;html=1;align=center;verticalAlign=middle;resizable=0;points=[];autosize=1;strokeColor=none;fillColor=none;" vertex="1" parent="1">
          <mxGeometry x="1700" y="870" width="40" height="30" as="geometry" />
        </mxCell>
        <mxCell id="ARyHhHrMXeGsc7QZUH2p-44" value="15" style="text;html=1;align=center;verticalAlign=middle;resizable=0;points=[];autosize=1;strokeColor=none;fillColor=none;" vertex="1" parent="1">
          <mxGeometry x="1700" y="1150" width="40" height="30" as="geometry" />
        </mxCell>
        <mxCell id="ARyHhHrMXeGsc7QZUH2p-45" value="47" style="text;html=1;align=center;verticalAlign=middle;resizable=0;points=[];autosize=1;strokeColor=none;fillColor=none;" vertex="1" parent="1">
          <mxGeometry x="1760" y="1020" width="40" height="30" as="geometry" />
        </mxCell>
        <mxCell id="ARyHhHrMXeGsc7QZUH2p-46" value="57" style="text;html=1;align=center;verticalAlign=middle;resizable=0;points=[];autosize=1;strokeColor=none;fillColor=none;" vertex="1" parent="1">
          <mxGeometry x="1940" y="1020" width="40" height="30" as="geometry" />
        </mxCell>
        <mxCell id="ARyHhHrMXeGsc7QZUH2p-47" value="40" style="text;html=1;align=center;verticalAlign=middle;resizable=0;points=[];autosize=1;strokeColor=none;fillColor=none;" vertex="1" parent="1">
          <mxGeometry x="1760" y="700" width="40" height="30" as="geometry" />
        </mxCell>
        <mxCell id="ARyHhHrMXeGsc7QZUH2p-48" value="55" style="text;html=1;align=center;verticalAlign=middle;resizable=0;points=[];autosize=1;strokeColor=none;fillColor=none;" vertex="1" parent="1">
          <mxGeometry x="1940" y="698" width="40" height="30" as="geometry" />
        </mxCell>
        <mxCell id="ARyHhHrMXeGsc7QZUH2p-49" value="57" style="text;html=1;align=center;verticalAlign=middle;resizable=0;points=[];autosize=1;strokeColor=none;fillColor=none;" vertex="1" parent="1">
          <mxGeometry x="2010" y="700" width="40" height="30" as="geometry" />
        </mxCell>
        <mxCell id="ARyHhHrMXeGsc7QZUH2p-50" value="59" style="text;html=1;align=center;verticalAlign=middle;resizable=0;points=[];autosize=1;strokeColor=none;fillColor=none;" vertex="1" parent="1">
          <mxGeometry x="2260" y="700" width="40" height="30" as="geometry" />
        </mxCell>
        <mxCell id="ARyHhHrMXeGsc7QZUH2p-51" value="59&amp;nbsp; &amp;nbsp; &amp;nbsp;59" style="text;html=1;align=center;verticalAlign=middle;resizable=0;points=[];autosize=1;strokeColor=none;fillColor=none;" vertex="1" parent="1">
          <mxGeometry x="2430" y="700" width="70" height="30" as="geometry" />
        </mxCell>
        <mxCell id="ARyHhHrMXeGsc7QZUH2p-52" value="60" style="text;html=1;align=center;verticalAlign=middle;resizable=0;points=[];autosize=1;strokeColor=none;fillColor=none;" vertex="1" parent="1">
          <mxGeometry x="2640" y="700" width="40" height="30" as="geometry" />
        </mxCell>
        <mxCell id="ARyHhHrMXeGsc7QZUH2p-53" value="62" style="text;html=1;align=center;verticalAlign=middle;resizable=0;points=[];autosize=1;strokeColor=none;fillColor=none;" vertex="1" parent="1">
          <mxGeometry x="2730" y="628" width="40" height="30" as="geometry" />
        </mxCell>
        <mxCell id="ARyHhHrMXeGsc7QZUH2p-54" value="67" style="text;html=1;align=center;verticalAlign=middle;resizable=0;points=[];autosize=1;strokeColor=none;fillColor=none;" vertex="1" parent="1">
          <mxGeometry x="2910" y="628" width="40" height="30" as="geometry" />
        </mxCell>
        <mxCell id="ARyHhHrMXeGsc7QZUH2p-57" value="59" style="text;html=1;align=center;verticalAlign=middle;resizable=0;points=[];autosize=1;strokeColor=none;fillColor=none;" vertex="1" parent="1">
          <mxGeometry x="2190" y="698" width="40" height="30" as="geometry" />
        </mxCell>
        <mxCell id="ARyHhHrMXeGsc7QZUH2p-58" value="59" style="text;html=1;align=center;verticalAlign=middle;resizable=0;points=[];autosize=1;strokeColor=none;fillColor=none;" vertex="1" parent="1">
          <mxGeometry x="2260" y="530" width="40" height="30" as="geometry" />
        </mxCell>
        <mxCell id="ARyHhHrMXeGsc7QZUH2p-59" value="67" style="text;html=1;align=center;verticalAlign=middle;resizable=0;points=[];autosize=1;strokeColor=none;fillColor=none;" vertex="1" parent="1">
          <mxGeometry x="2910" y="760" width="40" height="30" as="geometry" />
        </mxCell>
        <mxCell id="ARyHhHrMXeGsc7QZUH2p-60" value="62" style="text;html=1;align=center;verticalAlign=middle;resizable=0;points=[];autosize=1;strokeColor=none;fillColor=none;" vertex="1" parent="1">
          <mxGeometry x="2730" y="760" width="40" height="30" as="geometry" />
        </mxCell>
        <mxCell id="ARyHhHrMXeGsc7QZUH2p-61" value="62" style="text;html=1;align=center;verticalAlign=middle;resizable=0;points=[];autosize=1;strokeColor=none;fillColor=none;" vertex="1" parent="1">
          <mxGeometry x="2640" y="830" width="40" height="30" as="geometry" />
        </mxCell>
        <mxCell id="ARyHhHrMXeGsc7QZUH2p-62" value="61&amp;nbsp; &amp;nbsp; &amp;nbsp;61" style="text;html=1;align=center;verticalAlign=middle;resizable=0;points=[];autosize=1;strokeColor=none;fillColor=none;" vertex="1" parent="1">
          <mxGeometry x="2430" y="830" width="70" height="30" as="geometry" />
        </mxCell>
        <mxCell id="ARyHhHrMXeGsc7QZUH2p-64" value="61" style="text;html=1;align=center;verticalAlign=middle;resizable=0;points=[];autosize=1;strokeColor=none;fillColor=none;" vertex="1" parent="1">
          <mxGeometry x="2260" y="830" width="40" height="30" as="geometry" />
        </mxCell>
        <mxCell id="ARyHhHrMXeGsc7QZUH2p-65" value="59" style="text;html=1;align=center;verticalAlign=middle;resizable=0;points=[];autosize=1;strokeColor=none;fillColor=none;" vertex="1" parent="1">
          <mxGeometry x="2190" y="830" width="40" height="30" as="geometry" />
        </mxCell>
        <mxCell id="ARyHhHrMXeGsc7QZUH2p-66" value="57" style="text;html=1;align=center;verticalAlign=middle;resizable=0;points=[];autosize=1;strokeColor=none;fillColor=none;" vertex="1" parent="1">
          <mxGeometry x="2010" y="828" width="40" height="30" as="geometry" />
        </mxCell>
        <mxCell id="ARyHhHrMXeGsc7QZUH2p-67" value="62" style="text;html=1;align=center;verticalAlign=middle;resizable=0;points=[];autosize=1;strokeColor=none;fillColor=none;" vertex="1" parent="1">
          <mxGeometry x="2640" y="660" width="40" height="30" as="geometry" />
        </mxCell>
        <mxCell id="ARyHhHrMXeGsc7QZUH2p-68" value="60&amp;nbsp; &amp;nbsp; &amp;nbsp;60" style="text;html=1;align=center;verticalAlign=middle;resizable=0;points=[];autosize=1;strokeColor=none;fillColor=none;" vertex="1" parent="1">
          <mxGeometry x="2435" y="658" width="70" height="30" as="geometry" />
        </mxCell>
        <mxCell id="ARyHhHrMXeGsc7QZUH2p-69" value="59" style="text;html=1;align=center;verticalAlign=middle;resizable=0;points=[];autosize=1;strokeColor=none;fillColor=none;" vertex="1" parent="1">
          <mxGeometry x="2260" y="660" width="40" height="30" as="geometry" />
        </mxCell>
        <mxCell id="ARyHhHrMXeGsc7QZUH2p-70" value="59" style="text;html=1;align=center;verticalAlign=middle;resizable=0;points=[];autosize=1;strokeColor=none;fillColor=none;" vertex="1" parent="1">
          <mxGeometry x="2190" y="658" width="40" height="30" as="geometry" />
        </mxCell>
        <mxCell id="ARyHhHrMXeGsc7QZUH2p-71" value="54" style="text;html=1;align=center;verticalAlign=middle;resizable=0;points=[];autosize=1;strokeColor=none;fillColor=none;" vertex="1" parent="1">
          <mxGeometry x="2010" y="658" width="40" height="30" as="geometry" />
        </mxCell>
        <mxCell id="ARyHhHrMXeGsc7QZUH2p-72" value="57" style="text;html=1;align=center;verticalAlign=middle;resizable=0;points=[];autosize=1;strokeColor=none;fillColor=none;" vertex="1" parent="1">
          <mxGeometry x="1940" y="828" width="40" height="30" as="geometry" />
        </mxCell>
        <mxCell id="ARyHhHrMXeGsc7QZUH2p-74" value="57" style="text;html=1;align=center;verticalAlign=middle;resizable=0;points=[];autosize=1;strokeColor=none;fillColor=none;" vertex="1" parent="1">
          <mxGeometry x="1940" y="1150" width="40" height="30" as="geometry" />
        </mxCell>
        <mxCell id="ARyHhHrMXeGsc7QZUH2p-75" value="47" style="text;html=1;align=center;verticalAlign=middle;resizable=0;points=[];autosize=1;strokeColor=none;fillColor=none;" vertex="1" parent="1">
          <mxGeometry x="1760" y="830" width="40" height="30" as="geometry" />
        </mxCell>
        <mxCell id="ARyHhHrMXeGsc7QZUH2p-77" value="47" style="text;html=1;align=center;verticalAlign=middle;resizable=0;points=[];autosize=1;strokeColor=none;fillColor=none;" vertex="1" parent="1">
          <mxGeometry x="1760" y="1150" width="40" height="30" as="geometry" />
        </mxCell>
        <mxCell id="ARyHhHrMXeGsc7QZUH2p-78" value="47" style="text;html=1;align=center;verticalAlign=middle;resizable=0;points=[];autosize=1;strokeColor=none;fillColor=none;" vertex="1" parent="1">
          <mxGeometry x="1700" y="1000" width="40" height="30" as="geometry" />
        </mxCell>
        <mxCell id="ARyHhHrMXeGsc7QZUH2p-79" value="40" style="text;html=1;align=center;verticalAlign=middle;resizable=0;points=[];autosize=1;strokeColor=none;fillColor=none;" vertex="1" parent="1">
          <mxGeometry x="1510" y="1000" width="40" height="30" as="geometry" />
        </mxCell>
        <mxCell id="ARyHhHrMXeGsc7QZUH2p-80" value="47" style="text;html=1;align=center;verticalAlign=middle;resizable=0;points=[];autosize=1;strokeColor=none;fillColor=none;" vertex="1" parent="1">
          <mxGeometry x="1700" y="1280" width="40" height="30" as="geometry" />
        </mxCell>
        <mxCell id="ARyHhHrMXeGsc7QZUH2p-81" value="45" style="text;html=1;align=center;verticalAlign=middle;resizable=0;points=[];autosize=1;strokeColor=none;fillColor=none;" vertex="1" parent="1">
          <mxGeometry x="1510" y="1280" width="40" height="30" as="geometry" />
        </mxCell>
        <mxCell id="ARyHhHrMXeGsc7QZUH2p-82" value="40" style="text;html=1;align=center;verticalAlign=middle;resizable=0;points=[];autosize=1;strokeColor=none;fillColor=none;" vertex="1" parent="1">
          <mxGeometry x="1460" y="998" width="40" height="30" as="geometry" />
        </mxCell>
        <mxCell id="ARyHhHrMXeGsc7QZUH2p-83" value="37&amp;nbsp; &amp;nbsp; &amp;nbsp;37" style="text;html=1;align=center;verticalAlign=middle;resizable=0;points=[];autosize=1;strokeColor=none;fillColor=none;" vertex="1" parent="1">
          <mxGeometry x="1255" y="998" width="70" height="30" as="geometry" />
        </mxCell>
        <mxCell id="ARyHhHrMXeGsc7QZUH2p-84" value="23&amp;nbsp; &amp;nbsp; &amp;nbsp;23" style="text;html=1;align=center;verticalAlign=middle;resizable=0;points=[];autosize=1;strokeColor=none;fillColor=none;" vertex="1" parent="1">
          <mxGeometry x="1060" y="1000" width="70" height="30" as="geometry" />
        </mxCell>
        <mxCell id="ARyHhHrMXeGsc7QZUH2p-85" value="11" style="text;html=1;align=center;verticalAlign=middle;resizable=0;points=[];autosize=1;strokeColor=none;fillColor=none;" vertex="1" parent="1">
          <mxGeometry x="880" y="1000" width="40" height="30" as="geometry" />
        </mxCell>
        <mxCell id="ARyHhHrMXeGsc7QZUH2p-86" value="40" style="text;html=1;align=center;verticalAlign=middle;resizable=0;points=[];autosize=1;strokeColor=none;fillColor=none;" vertex="1" parent="1">
          <mxGeometry x="1460" y="845" width="40" height="30" as="geometry" />
        </mxCell>
        <mxCell id="ARyHhHrMXeGsc7QZUH2p-87" value="39&amp;nbsp; &amp;nbsp; &amp;nbsp;39" style="text;html=1;align=center;verticalAlign=middle;resizable=0;points=[];autosize=1;strokeColor=none;fillColor=none;" vertex="1" parent="1">
          <mxGeometry x="1255" y="845" width="70" height="30" as="geometry" />
        </mxCell>
        <mxCell id="ARyHhHrMXeGsc7QZUH2p-88" value="35&amp;nbsp; &amp;nbsp; &amp;nbsp;35" style="text;html=1;align=center;verticalAlign=middle;resizable=0;points=[];autosize=1;strokeColor=none;fillColor=none;" vertex="1" parent="1">
          <mxGeometry x="1060" y="845" width="70" height="30" as="geometry" />
        </mxCell>
        <mxCell id="ARyHhHrMXeGsc7QZUH2p-89" value="29" style="text;html=1;align=center;verticalAlign=middle;resizable=0;points=[];autosize=1;strokeColor=none;fillColor=none;" vertex="1" parent="1">
          <mxGeometry x="880" y="845" width="40" height="30" as="geometry" />
        </mxCell>
        <mxCell id="ARyHhHrMXeGsc7QZUH2p-90" value="40" style="text;html=1;align=center;verticalAlign=middle;resizable=0;points=[];autosize=1;strokeColor=none;fillColor=none;" vertex="1" parent="1">
          <mxGeometry x="1460" y="1148" width="40" height="30" as="geometry" />
        </mxCell>
        <mxCell id="ARyHhHrMXeGsc7QZUH2p-91" value="38" style="text;html=1;align=center;verticalAlign=middle;resizable=0;points=[];autosize=1;strokeColor=none;fillColor=none;" vertex="1" parent="1">
          <mxGeometry x="1270" y="1148" width="40" height="30" as="geometry" />
        </mxCell>
      </root>
    </mxGraphModel>
  </diagram>
</mxfile>
